<?xml version="1.0" encoding="UTF-8"?>
<svg width="159px" height="157px" viewBox="0 0 159 157" version="1.1" xmlns="http://www.w3.org/2000/svg" xmlns:xlink="http://www.w3.org/1999/xlink">
    <title>Combined Shape</title>
    <g id="Page-1" stroke="none" stroke-width="1" fill="none" fill-rule="evenodd">
        <g id="Artboard" transform="translate(-185.000000, -74.000000)" fill="#FFFFFF">
            <path d="M285.2962,81.3625526 L329.439641,113.972161 C341.50329,122.88381 346.547971,138.491264 341.982504,152.777818 L324.886895,206.274507 C320.252262,220.777501 306.773358,230.620546 291.547832,230.620546 L237.452168,230.620546 C222.226642,230.620546 208.747738,220.777501 204.113105,206.274507 L187.017496,152.777818 C182.452029,138.491264 187.49671,122.88381 199.560359,113.972161 L243.7038,81.3625526 C256.064478,72.2314825 272.935522,72.2314825 285.2962,81.3625526 Z M274.385562,121.4641 C268.3813,117.02781 260.185367,117.02781 254.181105,121.4641 L254.181105,121.4641 L233.869043,136.471805 C228.010661,140.800311 225.560868,148.380042 227.777733,155.318494 L227.777733,155.318494 L235.651325,179.961637 C237.902155,187.006392 244.449269,191.787731 251.844864,191.787731 L251.844864,191.787731 L276.721803,191.787731 C284.117397,191.787731 290.664512,187.006392 292.915342,179.961637 L292.915342,179.961637 L300.788934,155.318494 C303.005799,148.380042 300.556006,140.800311 294.697623,136.471805 L294.697623,136.471805 Z" id="Combined-Shape"></path>
        </g>
    </g>
</svg>